<?xml version="1.0" encoding="UTF-8" standalone="no"?><svg xmlns="http://www.w3.org/2000/svg" xmlns:xlink="http://www.w3.org/1999/xlink" contentScriptType="application/ecmascript" contentStyleType="text/css" height="1034px" preserveAspectRatio="none" style="width:518px;height:1034px;" version="1.1" viewBox="0 0 518 1034" width="518px" zoomAndPan="magnify"><defs><filter height="300%" id="fnjh2p5" width="300%" x="-1" y="-1"><feGaussianBlur result="blurOut" stdDeviation="2.0"/><feColorMatrix in="blurOut" result="blurOut2" type="matrix" values="0 0 0 0 0 0 0 0 0 0 0 0 0 0 0 0 0 0 .4 0"/><feOffset dx="4.0" dy="4.0" in="blurOut2" result="blurOut3"/><feBlend in="SourceGraphic" in2="blurOut3" mode="normal"/></filter></defs><g><polygon fill="#FBFB77" filter="url(#fnjh2p5)" points="108.75,10,108.75,35.1328,236.75,35.1328,236.75,20,226.75,10,108.75,10" style="stroke: #A80036; stroke-width: 1.0;"/><polygon fill="#FBFB77" points="108.75,10,108.75,35.1328,236.75,35.1328,236.75,28,256.75,22.5664,236.75,20,236.75,20,226.75,10,108.75,10" style="stroke: #A80036; stroke-width: 1.0;"/><line style="stroke: #A80036; stroke-width: 1.0;" x1="226.75" x2="226.75" y1="10" y2="20"/><line style="stroke: #A80036; stroke-width: 1.0;" x1="236.75" x2="226.75" y1="20" y2="20"/><text fill="#000000" font-family="sans-serif" font-size="13" lengthAdjust="spacingAndGlyphs" textLength="107" x="114.75" y="27.0669">From Application</text><ellipse cx="266.75" cy="22.5664" fill="#000000" filter="url(#fnjh2p5)" rx="10" ry="10" style="stroke: none; stroke-width: 1.0;"/><rect fill="#FEFECE" filter="url(#fnjh2p5)" height="33.9688" rx="12.5" ry="12.5" style="stroke: #A80036; stroke-width: 1.5;" width="120" x="206.75" y="55.1328"/><text fill="#000000" font-family="sans-serif" font-size="12" lengthAdjust="spacingAndGlyphs" textLength="100" x="216.75" y="76.2715">Check for INI file</text><polygon fill="#FEFECE" filter="url(#fnjh2p5)" points="219.25,109.1016,314.25,109.1016,326.25,121.1016,314.25,133.1016,219.25,133.1016,207.25,121.1016,219.25,109.1016" style="stroke: #A80036; stroke-width: 1.5;"/><text fill="#000000" font-family="sans-serif" font-size="11" lengthAdjust="spacingAndGlyphs" textLength="95" x="219.25" y="124.9097">INI file available?</text><text fill="#000000" font-family="sans-serif" font-size="11" font-weight="bold" lengthAdjust="spacingAndGlyphs" textLength="22" x="185.25" y="118.5073">yes</text><text fill="#000000" font-family="sans-serif" font-size="11" font-weight="bold" lengthAdjust="spacingAndGlyphs" textLength="16" x="326.25" y="118.5073">no</text><rect fill="#FEFECE" filter="url(#fnjh2p5)" height="33.9688" rx="12.5" ry="12.5" style="stroke: #A80036; stroke-width: 1.5;" width="253" x="10" y="143.1016"/><text fill="#000000" font-family="sans-serif" font-size="12" lengthAdjust="spacingAndGlyphs" textLength="233" x="20" y="164.2402">Read DB connection data from INI file</text><rect fill="#FEFECE" filter="url(#fnjh2p5)" height="33.9688" rx="12.5" ry="12.5" style="stroke: #A80036; stroke-width: 1.5;" width="208" x="293" y="143.1016"/><text fill="#000000" font-family="sans-serif" font-size="12" lengthAdjust="spacingAndGlyphs" textLength="188" x="303" y="164.2402">Consider this as the first start</text><rect fill="#FEFECE" filter="url(#fnjh2p5)" height="33.9688" rx="12.5" ry="12.5" style="stroke: #A80036; stroke-width: 1.5;" width="103" x="345.5" y="197.0703"/><text fill="#000000" font-family="sans-serif" font-size="12" lengthAdjust="spacingAndGlyphs" textLength="83" x="355.5" y="218.209">Create INI file</text><rect fill="#FEFECE" filter="url(#fnjh2p5)" height="33.9688" rx="12.5" ry="12.5" style="stroke: #A80036; stroke-width: 1.5;" width="228" x="283" y="251.0391"/><text fill="#000000" font-family="sans-serif" font-size="12" lengthAdjust="spacingAndGlyphs" textLength="208" x="293" y="272.1777">Initiate first start dialog as admin</text><rect fill="#FFFFFF" filter="url(#fnjh2p5)" height="90.2656" style="stroke: #000000; stroke-width: 2.0;" width="169" x="312.5" y="295.8096"/><path d="M471.5,296.8096 L471.5,305.1064 L461.5,315.1064 L312.5,315.1064 " fill="none" style="stroke: #000000; stroke-width: 2.0;"/><text fill="#000000" font-family="sans-serif" font-size="14" lengthAdjust="spacingAndGlyphs" textLength="149" x="315.5" y="309.8047">fun_first_start_dialog{</text><rect fill="#FEFECE" filter="url(#fnjh2p5)" height="33.9688" rx="12.5" ry="12.5" style="stroke: #A80036; stroke-width: 1.5;" width="111" x="341.5" y="332.1064"/><text fill="#000000" font-family="sans-serif" font-size="12" lengthAdjust="spacingAndGlyphs" textLength="91" x="351.5" y="353.2451">Select DB type</text><rect fill="#FEFECE" filter="url(#fnjh2p5)" height="33.9688" rx="12.5" ry="12.5" style="stroke: #A80036; stroke-width: 1.5;" width="78" x="358" y="406.0752"/><text fill="#000000" font-family="sans-serif" font-size="12" lengthAdjust="spacingAndGlyphs" textLength="58" x="368" y="427.2139">Setup DB</text><rect fill="#FEFECE" filter="url(#fnjh2p5)" height="33.9688" rx="12.5" ry="12.5" style="stroke: #A80036; stroke-width: 1.5;" width="208" x="293" y="460.0439"/><text fill="#000000" font-family="sans-serif" font-size="12" lengthAdjust="spacingAndGlyphs" textLength="188" x="303" y="481.1826">Setup connection paramaters</text><polygon fill="#FEFECE" filter="url(#fnjh2p5)" points="266.75,500.0127,278.75,512.0127,266.75,524.0127,254.75,512.0127,266.75,500.0127" style="stroke: #A80036; stroke-width: 1.5;"/><polygon fill="#FEFECE" filter="url(#fnjh2p5)" points="212.75,544.0127,320.75,544.0127,332.75,556.0127,320.75,568.0127,212.75,568.0127,200.75,556.0127,212.75,544.0127" style="stroke: #A80036; stroke-width: 1.5;"/><text fill="#000000" font-family="sans-serif" font-size="11" lengthAdjust="spacingAndGlyphs" textLength="108" x="212.75" y="559.8208">dbtype == SQLite3</text><text fill="#000000" font-family="sans-serif" font-size="11" font-weight="bold" lengthAdjust="spacingAndGlyphs" textLength="22" x="178.75" y="553.4185">yes</text><text fill="#000000" font-family="sans-serif" font-size="11" font-weight="bold" lengthAdjust="spacingAndGlyphs" textLength="16" x="332.75" y="553.4185">no</text><rect fill="#FEFECE" filter="url(#fnjh2p5)" height="33.9688" rx="12.5" ry="12.5" style="stroke: #A80036; stroke-width: 1.5;" width="177" x="94.75" y="578.0127"/><text fill="#000000" font-family="sans-serif" font-size="12" lengthAdjust="spacingAndGlyphs" textLength="157" x="104.75" y="599.1514">start in single user mode</text><rect fill="#FEFECE" filter="url(#fnjh2p5)" height="33.9688" rx="12.5" ry="12.5" style="stroke: #A80036; stroke-width: 1.5;" width="117" x="291.75" y="578.0127"/><text fill="#000000" font-family="sans-serif" font-size="12" lengthAdjust="spacingAndGlyphs" textLength="97" x="301.75" y="599.1514">multiuser mode</text><polygon fill="#FEFECE" filter="url(#fnjh2p5)" points="266.75,617.9814,278.75,629.9814,266.75,641.9814,254.75,629.9814,266.75,617.9814" style="stroke: #A80036; stroke-width: 1.5;"/><rect fill="#FEFECE" filter="url(#fnjh2p5)" height="33.9688" rx="12.5" ry="12.5" style="stroke: #A80036; stroke-width: 1.5;" width="260" x="136.75" y="661.9814"/><text fill="#000000" font-family="sans-serif" font-size="12" lengthAdjust="spacingAndGlyphs" textLength="240" x="146.75" y="683.1201">Read information about users from DB</text><rect fill="#FEFECE" filter="url(#fnjh2p5)" height="33.9688" rx="12.5" ry="12.5" style="stroke: #A80036; stroke-width: 1.5;" width="255" x="139.25" y="715.9502"/><text fill="#000000" font-family="sans-serif" font-size="12" lengthAdjust="spacingAndGlyphs" textLength="235" x="149.25" y="737.0889">dbname should be provided by admin</text><rect fill="#FEFECE" filter="url(#fnjh2p5)" height="33.9688" rx="12.5" ry="12.5" style="stroke: #A80036; stroke-width: 1.5;" width="275" x="129.25" y="769.9189"/><text fill="#000000" font-family="sans-serif" font-size="12" lengthAdjust="spacingAndGlyphs" textLength="255" x="139.25" y="791.0576">table name should be provided by admin</text><rect fill="#FEFECE" filter="url(#fnjh2p5)" height="33.9688" rx="12.5" ry="12.5" style="stroke: #A80036; stroke-width: 1.5;" width="110" x="211.75" y="823.8877"/><text fill="#000000" font-family="sans-serif" font-size="12" lengthAdjust="spacingAndGlyphs" textLength="90" x="221.75" y="845.0264">Connect to DB</text><rect fill="#FEFECE" filter="url(#fnjh2p5)" height="33.9688" rx="12.5" ry="12.5" style="stroke: #A80036; stroke-width: 1.5;" width="260" x="136.75" y="926.2588"/><text fill="#000000" font-family="sans-serif" font-size="12" lengthAdjust="spacingAndGlyphs" textLength="240" x="146.75" y="947.3975">Read information about users from DB</text><ellipse cx="266.75" cy="997.7432" fill="#FFFFFF" filter="url(#fnjh2p5)" rx="10" ry="10" style="stroke: #000000; stroke-width: 1.5;"/><line style="stroke: #000000; stroke-width: 2.5;" x1="260.5628" x2="272.9372" y1="991.556" y2="1003.9303"/><line style="stroke: #000000; stroke-width: 2.5;" x1="272.9372" x2="260.5628" y1="991.556" y2="1003.9303"/><polygon fill="#FEFECE" filter="url(#fnjh2p5)" points="199.75,877.8564,333.75,877.8564,345.75,889.8564,333.75,901.8564,199.75,901.8564,187.75,889.8564,199.75,877.8564" style="stroke: #A80036; stroke-width: 1.5;"/><text fill="#000000" font-family="sans-serif" font-size="11" font-weight="bold" lengthAdjust="spacingAndGlyphs" textLength="22" x="270.75" y="912.0669">yes</text><text fill="#000000" font-family="sans-serif" font-size="11" lengthAdjust="spacingAndGlyphs" textLength="134" x="199.75" y="893.6646">Connection successful?</text><line style="stroke: #A80036; stroke-width: 1.5;" x1="266.75" x2="266.75" y1="32.5664" y2="55.1328"/><polygon fill="#A80036" points="262.75,45.1328,266.75,55.1328,270.75,45.1328,266.75,49.1328" style="stroke: #A80036; stroke-width: 1.0;"/><line style="stroke: #A80036; stroke-width: 1.5;" x1="397" x2="397" y1="177.0703" y2="197.0703"/><polygon fill="#A80036" points="393,187.0703,397,197.0703,401,187.0703,397,191.0703" style="stroke: #A80036; stroke-width: 1.0;"/><line style="stroke: #A80036; stroke-width: 1.5;" x1="397" x2="397" y1="231.0391" y2="251.0391"/><polygon fill="#A80036" points="393,241.0391,397,251.0391,401,241.0391,397,245.0391" style="stroke: #A80036; stroke-width: 1.0;"/><line style="stroke: #A80036; stroke-width: 1.5;" x1="397" x2="397" y1="285.0078" y2="332.1064"/><polygon fill="#A80036" points="393,322.1064,397,332.1064,401,322.1064,397,326.1064" style="stroke: #A80036; stroke-width: 1.0;"/><line style="stroke: #A80036; stroke-width: 1.5;" x1="397" x2="397" y1="366.0752" y2="406.0752"/><polygon fill="#A80036" points="393,396.0752,397,406.0752,401,396.0752,397,400.0752" style="stroke: #A80036; stroke-width: 1.0;"/><line style="stroke: #A80036; stroke-width: 1.5;" x1="397" x2="397" y1="440.0439" y2="460.0439"/><polygon fill="#A80036" points="393,450.0439,397,460.0439,401,450.0439,397,454.0439" style="stroke: #A80036; stroke-width: 1.0;"/><line style="stroke: #A80036; stroke-width: 1.5;" x1="207.25" x2="136.5" y1="121.1016" y2="121.1016"/><line style="stroke: #A80036; stroke-width: 1.5;" x1="136.5" x2="136.5" y1="121.1016" y2="143.1016"/><polygon fill="#A80036" points="132.5,133.1016,136.5,143.1016,140.5,133.1016,136.5,137.1016" style="stroke: #A80036; stroke-width: 1.0;"/><line style="stroke: #A80036; stroke-width: 1.5;" x1="326.25" x2="397" y1="121.1016" y2="121.1016"/><line style="stroke: #A80036; stroke-width: 1.5;" x1="397" x2="397" y1="121.1016" y2="143.1016"/><polygon fill="#A80036" points="393,133.1016,397,143.1016,401,133.1016,397,137.1016" style="stroke: #A80036; stroke-width: 1.0;"/><line style="stroke: #A80036; stroke-width: 1.5;" x1="136.5" x2="136.5" y1="177.0703" y2="512.0127"/><line style="stroke: #A80036; stroke-width: 1.5;" x1="136.5" x2="254.75" y1="512.0127" y2="512.0127"/><polygon fill="#A80036" points="244.75,508.0127,254.75,512.0127,244.75,516.0127,248.75,512.0127" style="stroke: #A80036; stroke-width: 1.0;"/><line style="stroke: #A80036; stroke-width: 1.5;" x1="397" x2="397" y1="494.0127" y2="512.0127"/><line style="stroke: #A80036; stroke-width: 1.5;" x1="397" x2="278.75" y1="512.0127" y2="512.0127"/><polygon fill="#A80036" points="288.75,508.0127,278.75,512.0127,288.75,516.0127,284.75,512.0127" style="stroke: #A80036; stroke-width: 1.0;"/><line style="stroke: #A80036; stroke-width: 1.5;" x1="266.75" x2="266.75" y1="89.1016" y2="109.1016"/><polygon fill="#A80036" points="262.75,99.1016,266.75,109.1016,270.75,99.1016,266.75,103.1016" style="stroke: #A80036; stroke-width: 1.0;"/><line style="stroke: #A80036; stroke-width: 1.5;" x1="200.75" x2="183.25" y1="556.0127" y2="556.0127"/><line style="stroke: #A80036; stroke-width: 1.5;" x1="183.25" x2="183.25" y1="556.0127" y2="578.0127"/><polygon fill="#A80036" points="179.25,568.0127,183.25,578.0127,187.25,568.0127,183.25,572.0127" style="stroke: #A80036; stroke-width: 1.0;"/><line style="stroke: #A80036; stroke-width: 1.5;" x1="332.75" x2="350.25" y1="556.0127" y2="556.0127"/><line style="stroke: #A80036; stroke-width: 1.5;" x1="350.25" x2="350.25" y1="556.0127" y2="578.0127"/><polygon fill="#A80036" points="346.25,568.0127,350.25,578.0127,354.25,568.0127,350.25,572.0127" style="stroke: #A80036; stroke-width: 1.0;"/><line style="stroke: #A80036; stroke-width: 1.5;" x1="183.25" x2="183.25" y1="611.9814" y2="629.9814"/><line style="stroke: #A80036; stroke-width: 1.5;" x1="183.25" x2="254.75" y1="629.9814" y2="629.9814"/><polygon fill="#A80036" points="244.75,625.9814,254.75,629.9814,244.75,633.9814,248.75,629.9814" style="stroke: #A80036; stroke-width: 1.0;"/><line style="stroke: #A80036; stroke-width: 1.5;" x1="350.25" x2="350.25" y1="611.9814" y2="629.9814"/><line style="stroke: #A80036; stroke-width: 1.5;" x1="350.25" x2="278.75" y1="629.9814" y2="629.9814"/><polygon fill="#A80036" points="288.75,625.9814,278.75,629.9814,288.75,633.9814,284.75,629.9814" style="stroke: #A80036; stroke-width: 1.0;"/><line style="stroke: #A80036; stroke-width: 1.5;" x1="266.75" x2="266.75" y1="524.0127" y2="544.0127"/><polygon fill="#A80036" points="262.75,534.0127,266.75,544.0127,270.75,534.0127,266.75,538.0127" style="stroke: #A80036; stroke-width: 1.0;"/><line style="stroke: #A80036; stroke-width: 1.5;" x1="266.75" x2="266.75" y1="641.9814" y2="661.9814"/><polygon fill="#A80036" points="262.75,651.9814,266.75,661.9814,270.75,651.9814,266.75,655.9814" style="stroke: #A80036; stroke-width: 1.0;"/><line style="stroke: #A80036; stroke-width: 1.5;" x1="266.75" x2="266.75" y1="695.9502" y2="715.9502"/><polygon fill="#A80036" points="262.75,705.9502,266.75,715.9502,270.75,705.9502,266.75,709.9502" style="stroke: #A80036; stroke-width: 1.0;"/><line style="stroke: #A80036; stroke-width: 1.5;" x1="266.75" x2="266.75" y1="749.9189" y2="769.9189"/><polygon fill="#A80036" points="262.75,759.9189,266.75,769.9189,270.75,759.9189,266.75,763.9189" style="stroke: #A80036; stroke-width: 1.0;"/><line style="stroke: #A80036; stroke-width: 1.5;" x1="266.75" x2="266.75" y1="803.8877" y2="823.8877"/><polygon fill="#A80036" points="262.75,813.8877,266.75,823.8877,270.75,813.8877,266.75,817.8877" style="stroke: #A80036; stroke-width: 1.0;"/><line style="stroke: #A80036; stroke-width: 1.5;" x1="266.75" x2="266.75" y1="960.2275" y2="987.7432"/><polygon fill="#A80036" points="262.75,977.7432,266.75,987.7432,270.75,977.7432,266.75,981.7432" style="stroke: #A80036; stroke-width: 1.0;"/><line style="stroke: #A80036; stroke-width: 1.5;" x1="266.75" x2="266.75" y1="901.8564" y2="926.2588"/><polygon fill="#A80036" points="262.75,916.2588,266.75,926.2588,270.75,916.2588,266.75,920.2588" style="stroke: #A80036; stroke-width: 1.0;"/><line style="stroke: #A80036; stroke-width: 1.5;" x1="345.75" x2="406.75" y1="889.8564" y2="889.8564"/><polygon fill="#A80036" points="402.75,957.7432,406.75,967.7432,410.75,957.7432,406.75,961.7432" style="stroke: #A80036; stroke-width: 1.5;"/><line style="stroke: #A80036; stroke-width: 1.5;" x1="406.75" x2="406.75" y1="889.8564" y2="1029.7432"/><line style="stroke: #A80036; stroke-width: 1.5;" x1="406.75" x2="266.75" y1="1029.7432" y2="1029.7432"/><polygon fill="#A80036" points="276.75,1025.7432,266.75,1029.7432,276.75,1033.7432,272.75,1029.7432" style="stroke: #A80036; stroke-width: 1.0;"/><line style="stroke: #A80036; stroke-width: 1.5;" x1="266.75" x2="266.75" y1="857.8564" y2="877.8564"/><polygon fill="#A80036" points="262.75,867.8564,266.75,877.8564,270.75,867.8564,266.75,871.8564" style="stroke: #A80036; stroke-width: 1.0;"/></g></svg>